<svg width="1200" height="700" viewBox="0 0 1200 700" fill="none" xmlns="http://www.w3.org/2000/svg" role="img" aria-label="Fiktivni interijer">
  <defs>
    <linearGradient id="bg" x1="0" y1="0" x2="1" y2="1">
      <stop stop-color="rgba(124,58,237,.32)"/>
      <stop offset="0.55" stop-color="rgba(56,189,248,.20)"/>
      <stop offset="1" stop-color="rgba(34,197,94,.16)"/>
    </linearGradient>
    <linearGradient id="wall" x1="0" y1="0" x2="0" y2="1">
      <stop stop-color="rgba(255,255,255,.10)"/>
      <stop offset="1" stop-color="rgba(255,255,255,.04)"/>
    </linearGradient>
    <linearGradient id="floor" x1="0" y1="1" x2="1" y2="0">
      <stop stop-color="rgba(255,255,255,.08)"/>
      <stop offset="1" stop-color="rgba(255,255,255,.02)"/>
    </linearGradient>
    <filter id="n" x="-20%" y="-20%" width="140%" height="140%">
      <feTurbulence type="fractalNoise" baseFrequency="0.9" numOctaves="2" stitchTiles="stitch" />
      <feColorMatrix type="saturate" values="0"/>
      <feComponentTransfer><feFuncA type="table" tableValues="0 0.14"/></feComponentTransfer>
    </filter>
  </defs>

  <rect width="1200" height="700" rx="34" fill="url(#bg)"/>
  <rect x="70" y="80" width="760" height="360" rx="26" fill="url(#wall)" stroke="rgba(255,255,255,.16)" stroke-width="2"/>
  <rect x="70" y="440" width="1060" height="170" rx="30" fill="url(#floor)" stroke="rgba(255,255,255,.14)" stroke-width="2"/>

  <!-- window -->
  <rect x="110" y="120" width="320" height="220" rx="20" fill="rgba(255,255,255,.07)" stroke="rgba(255,255,255,.16)" stroke-width="2"/>
  <path d="M270 120v220M110 230h320" stroke="rgba(255,255,255,.18)" stroke-width="2"/>
  <circle cx="245" cy="250" r="60" fill="rgba(56,189,248,.10)"/>
  <circle cx="320" cy="205" r="36" fill="rgba(34,197,94,.10)"/>

  <!-- sofa -->
  <rect x="520" y="290" width="450" height="150" rx="28" fill="rgba(255,255,255,.08)" stroke="rgba(255,255,255,.14)" stroke-width="2"/>
  <rect x="550" y="320" width="180" height="90" rx="22" fill="rgba(255,255,255,.06)"/>
  <rect x="750" y="320" width="190" height="90" rx="22" fill="rgba(255,255,255,.06)"/>

  <!-- table -->
  <rect x="720" y="470" width="220" height="90" rx="24" fill="rgba(255,255,255,.07)" stroke="rgba(255,255,255,.12)" stroke-width="2"/>
  <path d="M745 560v35M915 560v35" stroke="rgba(255,255,255,.18)" stroke-width="6" stroke-linecap="round"/>

  <!-- “photo grain” -->
  <rect width="1200" height="700" filter="url(#n)" opacity=".35"/>
</svg>
