<svg width="1200" height="700" viewBox="0 0 1200 700" fill="none" xmlns="http://www.w3.org/2000/svg" role="img" aria-label="Fiktivna kupaonica - keramika">
  <defs>
    <linearGradient id="bg2" x1="0" y1="0" x2="1" y2="1">
      <stop stop-color="rgba(34,197,94,.18)"/>
      <stop offset="0.5" stop-color="rgba(56,189,248,.20)"/>
      <stop offset="1" stop-color="rgba(124,58,237,.18)"/>
    </linearGradient>
    <filter id="n2" x="-20%" y="-20%" width="140%" height="140%">
      <feTurbulence type="fractalNoise" baseFrequency="0.75" numOctaves="2" stitchTiles="stitch" />
      <feColorMatrix type="saturate" values="0"/>
      <feComponentTransfer><feFuncA type="table" tableValues="0 0.12"/></feComponentTransfer>
    </filter>
  </defs>

  <rect width="1200" height="700" rx="34" fill="url(#bg2)"/>

  <!-- tiles wall -->
  <rect x="90" y="80" width="780" height="520" rx="28" fill="rgba(255,255,255,.06)" stroke="rgba(255,255,255,.14)" stroke-width="2"/>
  <g stroke="rgba(255,255,255,.18)" stroke-width="2">
    <path d="M90 160H870"/><path d="M90 240H870"/><path d="M90 320H870"/><path d="M90 400H870"/><path d="M90 480H870"/><path d="M90 560H870"/>
    <path d="M190 80V600"/><path d="M290 80V600"/><path d="M390 80V600"/><path d="M490 80V600"/><path d="M590 80V600"/><path d="M690 80V600"/><path d="M790 80V600"/>
  </g>

  <!-- shower -->
  <rect x="920" y="120" width="200" height="420" rx="26" fill="rgba(255,255,255,.06)" stroke="rgba(255,255,255,.14)" stroke-width="2"/>
  <circle cx="1020" cy="175" r="44" fill="rgba(255,255,255,.06)" stroke="rgba(255,255,255,.18)" stroke-width="2"/>
  <path d="M1000 175h40M1020 155v40" stroke="rgba(255,255,255,.35)" stroke-width="4" stroke-linecap="round"/>

  <!-- floor -->
  <rect x="90" y="610" width="1030" height="60" rx="22" fill="rgba(255,255,255,.05)" stroke="rgba(255,255,255,.12)" stroke-width="2"/>

  <rect width="1200" height="700" filter="url(#n2)" opacity=".35"/>
</svg>
