<svg width="1200" height="700" viewBox="0 0 1200 700" fill="none" xmlns="http://www.w3.org/2000/svg" role="img" aria-label="Fiktivno održavanje zgrade">
  <defs>
    <linearGradient id="bg3" x1="0" y1="0" x2="1" y2="1">
      <stop stop-color="rgba(56,189,248,.22)"/>
      <stop offset="0.6" stop-color="rgba(124,58,237,.20)"/>
      <stop offset="1" stop-color="rgba(34,197,94,.16)"/>
    </linearGradient>
    <filter id="n3" x="-20%" y="-20%" width="140%" height="140%">
      <feTurbulence type="fractalNoise" baseFrequency="0.8" numOctaves="2" stitchTiles="stitch" />
      <feColorMatrix type="saturate" values="0"/>
      <feComponentTransfer><feFuncA type="table" tableValues="0 0.13"/></feComponentTransfer>
    </filter>
  </defs>

  <rect width="1200" height="700" rx="34" fill="url(#bg3)"/>
  <rect x="120" y="110" width="350" height="480" rx="28" fill="rgba(255,255,255,.07)" stroke="rgba(255,255,255,.14)" stroke-width="2"/>
  <rect x="500" y="80" width="520" height="510" rx="28" fill="rgba(255,255,255,.06)" stroke="rgba(255,255,255,.14)" stroke-width="2"/>

  <!-- windows -->
  <g stroke="rgba(255,255,255,.18)" stroke-width="2" stroke-linecap="round">
    <path d="M160 170h90M160 220h90M160 270h90M160 320h90M160 370h90M160 420h90M160 470h90"/>
    <path d="M540 150h130M540 200h130M540 250h130M540 300h130M540 350h130M540 400h130M540 450h130"/>
    <path d="M720 150h260M720 200h260M720 250h260M720 300h260M720 350h260M720 400h260M720 450h260"/>
  </g>

  <!-- tools icon -->
  <circle cx="1050" cy="160" r="64" fill="rgba(255,255,255,.06)" stroke="rgba(255,255,255,.14)" stroke-width="2"/>
  <path d="M1022 165l28-28 18 18-28 28-18-18Z" fill="rgba(255,255,255,.12)" stroke="rgba(255,255,255,.18)" stroke-width="2"/>
  <path d="M1042 142l-18-18" stroke="rgba(255,255,255,.28)" stroke-width="3" stroke-linecap="round"/>
  <path d="M1084 202l-30-30" stroke="rgba(255,255,255,.28)" stroke-width="3" stroke-linecap="round"/>

  <path d="M90 600h1020" stroke="rgba(255,255,255,.18)" stroke-width="6" stroke-linecap="round"/>
  <rect width="1200" height="700" filter="url(#n3)" opacity=".35"/>
</svg>
