<svg width="96" height="96" viewBox="0 0 96 96" fill="none" xmlns="http://www.w3.org/2000/svg" role="img" aria-label="GG mark">
  <defs>
    <linearGradient id="m" x1="0" y1="0" x2="96" y2="96">
      <stop stop-color="#A78BFA"/>
      <stop offset="0.55" stop-color="#38BDF8"/>
      <stop offset="1" stop-color="#22C55E"/>
    </linearGradient>
  </defs>
  <rect x="6" y="6" width="84" height="84" rx="26" fill="url(#m)" opacity=".18"/>
  <rect x="6" y="6" width="84" height="84" rx="26" stroke="rgba(255,255,255,.22)" stroke-width="2"/>
  <path d="M24 76V40c0-1.6 1-3.1 2.6-3.7l14-5.6c2.4-1 4.8.8 4.8 3.7V76" stroke="url(#m)" stroke-width="3.2" stroke-linecap="round"/>
  <path d="M56 76V30c0-1.8 1.5-3.3 3.3-3.3h12.4c1.8 0 3.3 1.5 3.3 3.3v46" stroke="url(#m)" stroke-width="3.2" stroke-linecap="round"/>
  <path d="M18 76h60" stroke="rgba(255,255,255,.25)" stroke-width="2.6" stroke-linecap="round"/>
  <path d="M29 46h7M29 54h7M29 62h7" stroke="rgba(255,255,255,.65)" stroke-width="2.8" stroke-linecap="round"/>
  <path d="M62 38h8M62 46h8M62 54h8M62 62h8" stroke="rgba(255,255,255,.65)" stroke-width="2.8" stroke-linecap="round"/>
</svg>
